<?xml version="1.0" encoding="UTF-8" standalone="no"?>
<svg
   xmlns:dc="http://purl.org/dc/elements/1.1/"
   xmlns:cc="http://creativecommons.org/ns#"
   xmlns:rdf="http://www.w3.org/1999/02/22-rdf-syntax-ns#"
   xmlns:svg="http://www.w3.org/2000/svg"
   xmlns="http://www.w3.org/2000/svg"
   xmlns:sodipodi="http://sodipodi.sourceforge.net/DTD/sodipodi-0.dtd"
   xmlns:inkscape="http://www.inkscape.org/namespaces/inkscape"
   version="1.1"
   width="480.49463"
   height="129.0237"
   viewBox="0 0 2402.4731 645.11849"
   id="svg3861"
   inkscape:version="0.48.5 r10040"
   sodipodi:docname="ftp.svg">
  <metadata
     id="metadata3873">
    <rdf:RDF>
      <cc:Work
         rdf:about="">
        <dc:format>image/svg+xml</dc:format>
        <dc:type
           rdf:resource="http://purl.org/dc/dcmitype/StillImage" />
      </cc:Work>
    </rdf:RDF>
  </metadata>
  <defs
     id="defs3871" />
  <sodipodi:namedview
     pagecolor="#ffffff"
     bordercolor="#666666"
     borderopacity="1"
     objecttolerance="10"
     gridtolerance="10"
     guidetolerance="10"
     inkscape:pageopacity="0"
     inkscape:pageshadow="2"
     inkscape:window-width="1920"
     inkscape:window-height="1025"
     id="namedview3869"
     showgrid="false"
     fit-margin-top="0"
     fit-margin-left="0"
     fit-margin-right="0"
     fit-margin-bottom="0"
     inkscape:zoom="1.475"
     inkscape:cx="56.514333"
     inkscape:cy="56.959724"
     inkscape:window-x="-2"
     inkscape:window-y="-3"
     inkscape:window-maximized="1"
     inkscape:current-layer="svg3861" />
  <g
     transform="matrix(8.0052555,0,0,8.0052555,-5.1363336e-6,589.1868)"
     id="g3863">
    <g
       transform="scale(0.05,-0.05)"
       id="g3865">
      <path
         d="m 1280,64 q 0,26 -19,45 -19,19 -45,19 -26,0 -45,-19 -19,-19 -19,-45 0,-26 19,-45 19,-19 45,-19 26,0 45,19 19,19 19,45 z m 256,0 q 0,26 -19,45 -19,19 -45,19 -26,0 -45,-19 -19,-19 -19,-45 0,-26 19,-45 19,-19 45,-19 26,0 45,19 19,19 19,45 z m 128,224 V -32 q 0,-40 -28,-68 -28,-28 -68,-28 H 96 q -40,0 -68,28 -28,28 -28,68 v 320 q 0,40 28,68 28,28 68,28 H 523 Q 544,328 593.5,292 643,256 704,256 h 256 q 61,0 110.5,36 49.5,36 70.5,92 h 427 q 40,0 68,-28 28,-28 28,-68 z m -325,648 q -17,-40 -59,-40 H 1024 V 448 q 0,-26 -19,-45 -19,-19 -45,-19 H 704 q -26,0 -45,19 -19,19 -19,45 V 896 H 384 q -42,0 -59,40 -17,39 14,69 l 448,448 q 18,19 45,19 27,0 45,-19 l 448,-448 q 31,-30 14,-69 z"
         id="path3867"
         inkscape:connector-curvature="0" />
    </g>
  </g>
  <g
     transform="matrix(59.469535,0,0,59.469535,-164.57391,-10607.637)"
     style="font-size:16px;font-style:normal;font-variant:normal;font-weight:bold;font-stretch:normal;line-height:125%;letter-spacing:0px;word-spacing:0px;fill:#000000;fill-opacity:1;stroke:none;font-family:Source Code Pro;-inkscape-font-specification:Source Code Pro Bold"
     id="flowRoot3875">
    <path
       d="m 16.63425,189.21882 2.352,0 0,-4.048 3.856,0 0,-1.984 -3.856,0 0,-2.416 4.528,0 0,-1.984 -6.88,0 0,10.432"
       style=""
       id="path3108" />
    <path
       d="m 28.116,189.21882 2.368,0 0,-8.448 3.12,0 0,-1.984 -8.608,0 0,1.984 3.12,0 0,8.448"
       style=""
       id="path3110" />
    <path
       d="m 35.27775,189.21882 2.352,0 0,-3.536 1.456,0 c 2.207998,0 4.08,-1.088 4.08,-3.536 0,-2.52799 -1.824002,-3.36 -4.08,-3.36 l -3.808,0 0,10.432 m 2.352,-5.408 0,-3.152 1.312,0 c 1.247999,0 1.904,0.40001 1.904,1.488 0,1.088 -0.608001,1.664 -1.904,1.664 l -1.312,0"
       style=""
       id="path3112" />
  </g>
</svg>
