<?xml version="1.0" encoding="UTF-8" standalone="no"?>
<svg
   xmlns:dc="http://purl.org/dc/elements/1.1/"
   xmlns:cc="http://creativecommons.org/ns#"
   xmlns:rdf="http://www.w3.org/1999/02/22-rdf-syntax-ns#"
   xmlns:svg="http://www.w3.org/2000/svg"
   xmlns="http://www.w3.org/2000/svg"
   xmlns:sodipodi="http://sodipodi.sourceforge.net/DTD/sodipodi-0.dtd"
   xmlns:inkscape="http://www.inkscape.org/namespaces/inkscape"
   version="1.1"
   width="440.10516"
   height="177.34911"
   viewBox="0 0 2200.5258 886.74553"
   id="svg2985"
   inkscape:version="0.48.5 r10040"
   sodipodi:docname="ssh.svg">
  <metadata
     id="metadata2997">
    <rdf:RDF>
      <cc:Work
         rdf:about="">
        <dc:format>image/svg+xml</dc:format>
        <dc:type
           rdf:resource="http://purl.org/dc/dcmitype/StillImage" />
      </cc:Work>
    </rdf:RDF>
  </metadata>
  <defs
     id="defs2995" />
  <sodipodi:namedview
     pagecolor="#ffffff"
     bordercolor="#666666"
     borderopacity="1"
     objecttolerance="10"
     gridtolerance="10"
     guidetolerance="10"
     inkscape:pageopacity="0"
     inkscape:pageshadow="2"
     inkscape:window-width="1920"
     inkscape:window-height="1025"
     id="namedview2993"
     showgrid="false"
     inkscape:zoom="0.55"
     inkscape:cx="388.71051"
     inkscape:cy="381.67157"
     inkscape:window-x="-2"
     inkscape:window-y="-3"
     inkscape:window-maximized="1"
     inkscape:current-layer="svg2985"
     fit-margin-top="0"
     fit-margin-left="0"
     fit-margin-right="0"
     fit-margin-bottom="0" />
  <rect
     style="color:#000000;fill:#000000;fill-opacity:1;fill-rule:nonzero;stroke:none;stroke-width:0.5;marker:none;visibility:visible;display:inline;overflow:visible;enable-background:accumulate"
     id="rect2999"
     width="2200.5259"
     height="886.74554"
     x="0"
     y="-2.7725393e-06"
     ry="226.52129" />
  <flowRoot
     xml:space="preserve"
     id="flowRoot3001"
     style="font-size:16px;font-style:normal;font-weight:normal;line-height:125%;letter-spacing:0px;word-spacing:0px;fill:#000000;fill-opacity:1;stroke:none;font-family:Sans"
     transform="matrix(5,0,0,5,191.7581,722.1769)"><flowRegion
       id="flowRegion3003"><rect
         id="rect3005"
         width="16.949152"
         height="16.864407"
         x="2.2881355"
         y="1.6949153" /></flowRegion><flowPara
       id="flowPara3007">SsSS</flowPara></flowRoot>  <g
     transform="matrix(39.54022,0,0,39.54022,-2740.4355,-3491.4896)"
     style="font-size:16px;font-style:normal;font-variant:normal;font-weight:bold;font-stretch:normal;line-height:125%;letter-spacing:0px;word-spacing:0px;fill:#eeeeee;fill-opacity:1;stroke:none;font-family:Source Code Pro;-inkscape-font-specification:Source Code Pro Bold"
     id="flowRoot3009">
    <path
       d="m 88.55,101.53182 c 1.119999,0.992 2.560001,1.504 3.968,1.504 2.591997,0 4.048,-1.504 4.048,-3.231995 0,-1.471999 -0.864001,-2.320001 -2.24,-2.832 l -1.264,-0.544 c -1.007999,-0.368 -1.712,-0.592001 -1.712,-1.232 0,-0.592 0.528001,-0.944 1.44,-0.944 0.895999,0 1.552001,0.304 2.272,0.832 l 1.2,-1.488 c -0.943999,-0.896 -2.208001,-1.376 -3.472,-1.376 -2.255998,0 -3.824,1.376001 -3.824,3.104 0,1.519998 1.056001,2.416 2.224,2.848 l 1.344,0.576 c 1.007999,0.383999 1.616,0.592 1.616,1.248 0,0.623995 -0.480001,1.007995 -1.568,1.007995 -0.911999,0 -1.888001,-0.448 -2.672,-1.087995 l -1.36,1.615995"
       style="font-family:Source Code Pro;-inkscape-font-specification:Source Code Pro Bold;fill:#eeeeee"
       id="path3101" />
    <path
       d="m 98.14375,101.53182 c 1.119999,0.992 2.56,1.504 3.968,1.504 2.592,0 4.048,-1.504 4.048,-3.231995 0,-1.471999 -0.864,-2.320001 -2.24,-2.832 l -1.264,-0.544 c -1.008,-0.368 -1.712,-0.592001 -1.712,-1.232 0,-0.592 0.528,-0.944 1.44,-0.944 0.896,0 1.552,0.304 2.272,0.832 l 1.2,-1.488 c -0.944,-0.896 -2.208,-1.376 -3.472,-1.376 -2.256,0 -3.824,1.376001 -3.824,3.104 0,1.519998 1.056001,2.416 2.224,2.848 l 1.344,0.576 c 1.008,0.383999 1.616,0.592 1.616,1.248 0,0.623995 -0.48,1.007995 -1.568,1.007995 -0.912,0 -1.888,-0.448 -2.672,-1.087995 l -1.36,1.615995"
       style="font-family:Source Code Pro;-inkscape-font-specification:Source Code Pro Bold;fill:#eeeeee"
       id="path3103" />
    <path
       d="m 107.9615,102.84382 2.352,0 0,-4.351995 2.848,0 0,4.351995 2.352,0 0,-10.431995 -2.352,0 0,4.016 -2.848,0 0,-4.016 -2.352,0 0,10.431995"
       style="font-family:Source Code Pro;-inkscape-font-specification:Source Code Pro Bold;fill:#eeeeee"
       id="path3105" />
  </g>
  <rect
     style="color:#000000;fill:#eeeeee;fill-opacity:1;fill-rule:nonzero;stroke:none;stroke-width:0.5;marker:none;visibility:visible;display:inline;overflow:visible;enable-background:accumulate"
     id="rect3017"
     width="354.54544"
     height="79.431252"
     x="733.34906"
     y="673.22345"
     ry="19.857824" />
  <path
     inkscape:connector-curvature="0"
     id="path3021"
     d="M 295.84901,675.60452 645.84903,419.22763 295.84901,162.85073"
     style="fill:none;stroke:#eeeeee;stroke-width:89.56510162;stroke-linecap:butt;stroke-linejoin:bevel;stroke-miterlimit:4;stroke-opacity:1;stroke-dasharray:none"
     sodipodi:nodetypes="ccc" />
</svg>
