<?xml version="1.0" encoding="UTF-8" standalone="no"?>
<svg
   xmlns:dc="http://purl.org/dc/elements/1.1/"
   xmlns:cc="http://creativecommons.org/ns#"
   xmlns:rdf="http://www.w3.org/1999/02/22-rdf-syntax-ns#"
   xmlns:svg="http://www.w3.org/2000/svg"
   xmlns="http://www.w3.org/2000/svg"
   xmlns:sodipodi="http://sodipodi.sourceforge.net/DTD/sodipodi-0.dtd"
   xmlns:inkscape="http://www.inkscape.org/namespaces/inkscape"
   sodipodi:docname="home-background.svg"
   inkscape:version="0.48.5 r10040"
   version="1.1"
   id="svg4320"
   height="667"
   width="1366">
  <metadata
     id="metadata4444">
    <rdf:RDF>
      <cc:Work
         rdf:about="">
        <dc:format>image/svg+xml</dc:format>
        <dc:type
           rdf:resource="http://purl.org/dc/dcmitype/StillImage" />
      </cc:Work>
    </rdf:RDF>
  </metadata>
  <defs
     id="defs4442" />
  <sodipodi:namedview
     pagecolor="#ffffff"
     bordercolor="#666666"
     borderopacity="1"
     objecttolerance="10"
     gridtolerance="10"
     guidetolerance="10"
     inkscape:pageopacity="0"
     inkscape:pageshadow="2"
     inkscape:window-width="1920"
     inkscape:window-height="1025"
     id="namedview4440"
     showgrid="false"
     inkscape:zoom="0.47437774"
     inkscape:cx="1047.5923"
     inkscape:cy="207.35224"
     inkscape:window-x="-2"
     inkscape:window-y="-3"
     inkscape:window-maximized="1"
     inkscape:current-layer="g4322" />
  <g
     id="g4322">
    <path
       d="M -41.544522,-33.814433 -153.46739,523.17669 29.281663,171.66896 z"
       id="path4324"
       style="opacity:0.2;fill:#e6e6e6;stroke:none"
       inkscape:connector-curvature="0" />
    <path
       d="M -41.544522,-33.814433 29.281663,171.66896 108.85182,-10.205701 z"
       id="path4326"
       style="opacity:0.2;fill:#fdfdfd;stroke:none"
       inkscape:connector-curvature="0" />
    <path
       d="M -41.544522,-33.814433 108.85182,-10.205701 553.92008,-137.86772 z"
       id="path4328"
       style="opacity:0.2;fill:#eeeeee;stroke:none"
       inkscape:connector-curvature="0" />
    <path
       d="M 108.85182,-10.205701 29.281663,171.66896 201.53795,99.968368 z"
       id="path4330"
       style="opacity:0.2;fill:#f4f4f4;stroke:none"
       inkscape:connector-curvature="0" />
    <path
       d="M 108.85182,-10.205701 201.53795,99.968368 553.92008,-137.86772 z"
       id="path4332"
       style="opacity:0.2;fill:#e7e7e7;stroke:none"
       inkscape:connector-curvature="0" />
    <path
       d="M 553.92008,-137.86772 201.53795,99.968368 650.1038,100.84277 z"
       id="path4334"
       style="opacity:0.2;fill:#d3d3d3;stroke:none"
       inkscape:connector-curvature="0" />
    <path
       d="M 553.92008,-137.86772 650.1038,100.84277 822.36008,-44.307203 z"
       id="path4336"
       style="opacity:0.2;fill:#bcbcbc;stroke:none"
       inkscape:connector-curvature="0" />
    <path
       d="m 553.92008,-137.86772 268.44,93.560517 95.30932,-97.058107 z"
       id="path4338"
       style="opacity:0.2;fill:#b3b3b3;stroke:none"
       inkscape:connector-curvature="0" />
    <path
       d="m 553.92008,-137.86772 363.74932,-3.49759 269.3144,-31.4783 z"
       id="path4340"
       style="opacity:0.2;fill:#a3a3a3;stroke:none"
       inkscape:connector-curvature="0" />
    <path
       d="M 822.36008,-44.307203 650.1038,100.84277 977.12841,51.876513 z"
       id="path4342"
       style="opacity:0.2;fill:#acacac;stroke:none"
       inkscape:connector-curvature="0" />
    <path
       d="M 822.36008,-44.307203 977.12841,51.876513 917.6694,-141.36531 z"
       id="path4344"
       style="opacity:0.2;fill:#a1a1a1;stroke:none"
       inkscape:connector-curvature="0" />
    <path
       d="M 917.6694,-141.36531 977.12841,51.876513 1186.9838,-172.84361 z"
       id="path4346"
       style="opacity:0.2;fill:#919191;stroke:none"
       inkscape:connector-curvature="0" />
    <path
       d="M 1186.9838,-172.84361 977.12841,51.876513 1206.2205,52.75091 z"
       id="path4348"
       style="opacity:0.2;fill:#848484;stroke:none"
       inkscape:connector-curvature="0" />
    <path
       d="m 1186.9838,-172.84361 19.2367,225.59452 391.7301,-206.35778 z"
       id="path4350"
       style="opacity:0.2;fill:#808080;stroke:none"
       inkscape:connector-curvature="0" />
    <path
       d="M 1597.9506,-153.60687 1206.2205,52.75091 1531.4963,199.64967 z"
       id="path4352"
       style="opacity:0.2;fill:#808080;stroke:none"
       inkscape:connector-curvature="0" />
    <path
       d="m 1597.9506,-153.60687 -66.4543,353.25654 16.6135,287.67673 z"
       id="path4354"
       style="opacity:0.2;fill:#727272;stroke:none"
       inkscape:connector-curvature="0" />
    <path
       d="m 1597.9506,-153.60687 -49.8408,640.93327 66.4543,436.32428 z"
       id="path4356"
       style="opacity:0.2;fill:#303030;stroke:none"
       inkscape:connector-curvature="0" />
    <path
       d="M 29.281663,171.66896 -153.46739,523.17669 270.61534,474.21045 z"
       id="path4358"
       style="opacity:0.2;fill:#b6b6b6;stroke:none"
       inkscape:connector-curvature="0" />
    <path
       d="M 29.281663,171.66896 270.61534,474.21045 369.42224,274.84784 z"
       id="path4360"
       style="opacity:0.2;fill:#bcbcbc;stroke:none"
       inkscape:connector-curvature="0" />
    <path
       d="M 29.281663,171.66896 369.42224,274.84784 201.53795,99.968368 z"
       id="path4362"
       style="opacity:0.2;fill:#e0e0e0;stroke:none"
       inkscape:connector-curvature="0" />
    <path
       d="M 201.53795,99.968368 369.42224,274.84784 650.1038,100.84277 z"
       id="path4364"
       style="opacity:0.2;fill:#d1d1d1;stroke:none"
       inkscape:connector-curvature="0" />
    <path
       d="M 369.42224,274.84784 270.61534,474.21045 371.17103,454.9737 z"
       id="path4366"
       style="opacity:0.2;fill:#989898;stroke:none"
       inkscape:connector-curvature="0" />
    <path
       d="m 369.42224,274.84784 1.74879,180.12586 268.44,-83.94215 z"
       id="path4368"
       style="opacity:0.2;fill:#949494;stroke:none"
       inkscape:connector-curvature="0" />
    <path
       d="M 369.42224,274.84784 639.61103,371.03155 650.1038,100.84277 z"
       id="path4370"
       style="opacity:0.2;fill:#a8a8a8;stroke:none"
       inkscape:connector-curvature="0" />
    <path
       d="M 650.1038,100.84277 639.61103,371.03155 977.12841,51.876513 z"
       id="path4372"
       style="opacity:0.2;fill:#a7a7a7;stroke:none"
       inkscape:connector-curvature="0" />
    <path
       d="M 977.12841,51.876513 639.61103,371.03155 1089.9257,370.15716 z"
       id="path4374"
       style="opacity:0.2;fill:#7c7c7c;stroke:none"
       inkscape:connector-curvature="0" />
    <path
       d="M 977.12841,51.876513 1089.9257,370.15716 1206.2205,52.75091 z"
       id="path4376"
       style="opacity:0.2;fill:#818181;stroke:none"
       inkscape:connector-curvature="0" />
    <path
       d="m 1206.2205,52.75091 -116.2948,317.40625 225.5945,122.41563 z"
       id="path4378"
       style="opacity:0.2;fill:#505050;stroke:none"
       inkscape:connector-curvature="0" />
    <path
       d="m 1206.2205,52.75091 109.2997,439.82188 215.9761,-292.92312 z"
       id="path4380"
       style="opacity:0.2;fill:#5f5f5f;stroke:none"
       inkscape:connector-curvature="0" />
    <path
       d="m 1531.4963,199.64967 -215.9761,292.92312 232.5896,-5.24639 z"
       id="path4382"
       style="opacity:0.2;fill:#383838;stroke:none"
       inkscape:connector-curvature="0" />
    <path
       d="m -153.46739,523.17669 -29.72951,153.01954 292.04872,30.60391 z"
       id="path4384"
       style="opacity:0.2;fill:#808080;stroke:none"
       inkscape:connector-curvature="0" />
    <path
       d="M -153.46739,523.17669 108.85182,706.80014 270.61534,474.21045 z"
       id="path4386"
       style="opacity:0.2;fill:#7b7b7b;stroke:none"
       inkscape:connector-curvature="0" />
    <path
       d="M 270.61534,474.21045 108.85182,706.80014 350.18549,743.52483 z"
       id="path4388"
       style="opacity:0.2;fill:#6b6b6b;stroke:none"
       inkscape:connector-curvature="0" />
    <path
       d="M 270.61534,474.21045 350.18549,743.52483 371.17103,454.9737 z"
       id="path4390"
       style="opacity:0.2;fill:#676767;stroke:none"
       inkscape:connector-curvature="0" />
    <path
       d="M 371.17103,454.9737 350.18549,743.52483 639.61103,371.03155 z"
       id="path4392"
       style="opacity:0.2;fill:#636363;stroke:none"
       inkscape:connector-curvature="0" />
    <path
       d="M 639.61103,371.03155 350.18549,743.52483 819.73688,721.66491 z"
       id="path4394"
       style="opacity:0.2;fill:#444444;stroke:none"
       inkscape:connector-curvature="0" />
    <path
       d="M 639.61103,371.03155 819.73688,721.66491 936.03174,628.10437 z"
       id="path4396"
       style="opacity:0.2;fill:#2f2f2f;stroke:none"
       inkscape:connector-curvature="0" />
    <path
       d="M 639.61103,371.03155 936.03174,628.10437 1089.9257,370.15716 z"
       id="path4398"
       style="opacity:0.2;fill:#474747;stroke:none"
       inkscape:connector-curvature="0" />
    <path
       d="M 1089.9257,370.15716 936.03174,628.10437 1315.5202,492.57279 z"
       id="path4400"
       style="opacity:0.2;fill:#1d1d1d;stroke:none"
       inkscape:connector-curvature="0" />
    <path
       d="M 1315.5202,492.57279 936.03174,628.10437 1340.0033,687.5634 z"
       id="path4402"
       style="opacity:0.2;fill:#000000;stroke:none"
       inkscape:connector-curvature="0" />
    <path
       d="m 1315.5202,492.57279 24.4831,194.99061 208.1065,-200.237 z"
       id="path4404"
       style="opacity:0.2;fill:#050505;stroke:none"
       inkscape:connector-curvature="0" />
    <path
       d="m 1548.1098,487.3264 -208.1065,200.237 108.4253,83.94214 z"
       id="path4406"
       style="opacity:0.2;fill:#000000;stroke:none"
       inkscape:connector-curvature="0" />
    <path
       d="m 1548.1098,487.3264 -99.6812,284.17914 166.1355,152.14514 z"
       id="path4408"
       style="opacity:0.2;fill:#000000;stroke:none"
       inkscape:connector-curvature="0" />
    <path
       d="M -183.1969,676.19623 -90.510786,977.86333 108.85182,706.80014 z"
       id="path4410"
       style="opacity:0.2;fill:#808080;stroke:none"
       inkscape:connector-curvature="0" />
    <path
       d="M 108.85182,706.80014 -90.510786,977.86333 163.93886,995.35127 z"
       id="path4412"
       style="opacity:0.2;fill:#7c7c7c;stroke:none"
       inkscape:connector-curvature="0" />
    <path
       d="M 108.85182,706.80014 163.93886,995.35127 350.18549,743.52483 z"
       id="path4414"
       style="opacity:0.2;fill:#6f6f6f;stroke:none"
       inkscape:connector-curvature="0" />
    <path
       d="M 350.18549,743.52483 163.93886,995.35127 436.75084,864.19166 z"
       id="path4416"
       style="opacity:0.2;fill:#646464;stroke:none"
       inkscape:connector-curvature="0" />
    <path
       d="M 350.18549,743.52483 436.75084,864.19166 819.73688,721.66491 z"
       id="path4418"
       style="opacity:0.2;fill:#4c4c4c;stroke:none"
       inkscape:connector-curvature="0" />
    <path
       d="M 819.73688,721.66491 436.75084,864.19166 724.42757,924.52509 z"
       id="path4420"
       style="opacity:0.2;fill:#3e3e3e;stroke:none"
       inkscape:connector-curvature="0" />
    <path
       d="m 819.73688,721.66491 -95.30931,202.86018 250.95204,76.07261 z"
       id="path4422"
       style="opacity:0.2;fill:#2a2a2a;stroke:none"
       inkscape:connector-curvature="0" />
    <path
       d="M 819.73688,721.66491 975.37961,1000.5977 936.03174,628.10437 z"
       id="path4424"
       style="opacity:0.2;fill:#212121;stroke:none"
       inkscape:connector-curvature="0" />
    <path
       d="m 936.03174,628.10437 39.34787,372.49333 201.98579,-77.82141 z"
       id="path4426"
       style="opacity:0.2;fill:#111111;stroke:none"
       inkscape:connector-curvature="0" />
    <path
       d="M 936.03174,628.10437 1177.3654,922.77629 1340.0033,687.5634 z"
       id="path4428"
       style="opacity:0.2;fill:#010101;stroke:none"
       inkscape:connector-curvature="0" />
    <path
       d="M 1340.0033,687.5634 1177.3654,922.77629 1448.4286,771.50554 z"
       id="path4430"
       style="opacity:0.2;fill:#000000;stroke:none"
       inkscape:connector-curvature="0" />
    <path
       d="m 1448.4286,771.50554 -271.0632,151.27075 437.1987,0.87439 z"
       id="path4432"
       style="opacity:0.2;fill:#000000;stroke:none"
       inkscape:connector-curvature="0" />
    <path
       d="m 163.93886,995.35127 811.44075,5.24643 -250.95204,-76.07261 z"
       id="path4434"
       style="opacity:0.2;fill:#434343;stroke:none"
       inkscape:connector-curvature="0" />
    <path
       d="M 163.93886,995.35127 724.42757,924.52509 436.75084,864.19166 z"
       id="path4436"
       style="opacity:0.2;fill:#565656;stroke:none"
       inkscape:connector-curvature="0" />
    <path
       d="m 975.37961,1000.5977 639.18449,-76.94702 -437.1987,-0.87439 z"
       id="path4438"
       style="opacity:0.2;fill:#000000;stroke:none"
       inkscape:connector-curvature="0" />
  </g>
</svg>
