<?xml version="1.0" encoding="UTF-8" standalone="no"?>
<svg
   xmlns:dc="http://purl.org/dc/elements/1.1/"
   xmlns:cc="http://creativecommons.org/ns#"
   xmlns:rdf="http://www.w3.org/1999/02/22-rdf-syntax-ns#"
   xmlns:svg="http://www.w3.org/2000/svg"
   xmlns="http://www.w3.org/2000/svg"
   xmlns:sodipodi="http://sodipodi.sourceforge.net/DTD/sodipodi-0.dtd"
   xmlns:inkscape="http://www.inkscape.org/namespaces/inkscape"
   sodipodi:docname="home-background.svg"
   inkscape:version="0.48.5 r10040"
   version="1.1"
   id="svg4320"
   height="667"
   width="1366">
  <metadata
     id="metadata4444">
    <rdf:RDF>
      <cc:Work
         rdf:about="">
        <dc:format>image/svg+xml</dc:format>
        <dc:type
           rdf:resource="http://purl.org/dc/dcmitype/StillImage" />
      </cc:Work>
    </rdf:RDF>
  </metadata>
  <defs
     id="defs4442" />
  <sodipodi:namedview
     pagecolor="#ffffff"
     bordercolor="#666666"
     borderopacity="1"
     objecttolerance="10"
     gridtolerance="10"
     guidetolerance="10"
     inkscape:pageopacity="0"
     inkscape:pageshadow="2"
     inkscape:window-width="1920"
     inkscape:window-height="1060"
     id="namedview4440"
     showgrid="false"
     inkscape:zoom="0.47437774"
     inkscape:cx="1047.5923"
     inkscape:cy="189.43403"
     inkscape:window-x="1918"
     inkscape:window-y="-3"
     inkscape:window-maximized="1"
     inkscape:current-layer="g4322" />
  <g
     id="g4322">
    <path
       d="M -66.840818,-48.570598 -178.76369,508.42054 3.985362,156.9128 z"
       id="path4324"
       style="opacity:0.2;fill:#e6e6e6;stroke:none"
       inkscape:connector-curvature="0" />
    <path
       d="M -66.840818,-48.570598 3.985362,156.9128 83.555522,-24.961868 z"
       id="path4326"
       style="opacity:0.2;fill:#fdfdfd;stroke:none"
       inkscape:connector-curvature="0" />
    <path
       d="M -66.840818,-48.570598 83.555522,-24.961868 528.62378,-152.62387 z"
       id="path4328"
       style="opacity:0.2;fill:#eeeeee;stroke:none"
       inkscape:connector-curvature="0" />
    <path
       d="M 83.555522,-24.961868 3.985362,156.9128 176.24166,85.212202 z"
       id="path4330"
       style="opacity:0.2;fill:#f4f4f4;stroke:none"
       inkscape:connector-curvature="0" />
    <path
       d="M 83.555522,-24.961868 176.24166,85.212202 528.62378,-152.62387 z"
       id="path4332"
       style="opacity:0.2;fill:#e7e7e7;stroke:none"
       inkscape:connector-curvature="0" />
    <path
       d="M 528.62378,-152.62387 176.24166,85.212202 624.8075,86.086602 z"
       id="path4334"
       style="opacity:0.2;fill:#d3d3d3;stroke:none"
       inkscape:connector-curvature="0" />
    <path
       d="M 528.62378,-152.62387 624.8075,86.086602 797.06378,-59.063357 z"
       id="path4336"
       style="opacity:0.2;fill:#bcbcbc;stroke:none"
       inkscape:connector-curvature="0" />
    <path
       d="m 528.62378,-152.62387 268.44,93.560513 95.30932,-97.058103 z"
       id="path4338"
       style="opacity:0.2;fill:#b3b3b3;stroke:none"
       inkscape:connector-curvature="0" />
    <path
       d="m 528.62378,-152.62387 363.74932,-3.49759 269.3143,-31.4783 z"
       id="path4340"
       style="opacity:0.2;fill:#a3a3a3;stroke:none"
       inkscape:connector-curvature="0" />
    <path
       d="M 797.06378,-59.063357 624.8075,86.086602 951.83211,37.120342 z"
       id="path4342"
       style="opacity:0.2;fill:#acacac;stroke:none"
       inkscape:connector-curvature="0" />
    <path
       d="M 797.06378,-59.063357 951.83211,37.120342 892.3731,-156.12146 z"
       id="path4344"
       style="opacity:0.2;fill:#a1a1a1;stroke:none"
       inkscape:connector-curvature="0" />
    <path
       d="M 892.3731,-156.12146 951.83211,37.120342 1161.6874,-187.59976 z"
       id="path4346"
       style="opacity:0.2;fill:#919191;stroke:none"
       inkscape:connector-curvature="0" />
    <path
       d="m 1161.6874,-187.59976 -209.85529,224.720102 229.09199,0.8744 z"
       id="path4348"
       style="opacity:0.2;fill:#848484;stroke:none"
       inkscape:connector-curvature="0" />
    <path
       d="m 1161.6874,-187.59976 19.2367,225.594502 391.7301,-206.357762 z"
       id="path4350"
       style="opacity:0.2;fill:#808080;stroke:none"
       inkscape:connector-curvature="0" />
    <path
       d="M 1572.6542,-168.36302 1180.9241,37.994742 1506.1999,184.89351 z"
       id="path4352"
       style="opacity:0.2;fill:#808080;stroke:none"
       inkscape:connector-curvature="0" />
    <path
       d="m 1572.6542,-168.36302 -66.4543,353.25653 16.6135,287.67674 z"
       id="path4354"
       style="opacity:0.2;fill:#727272;stroke:none"
       inkscape:connector-curvature="0" />
    <path
       d="m 1572.6542,-168.36302 -49.8408,640.93327 66.4543,436.32427 z"
       id="path4356"
       style="opacity:0.2;fill:#303030;stroke:none"
       inkscape:connector-curvature="0" />
    <path
       d="M 3.985362,156.9128 -178.76369,508.42054 245.31905,459.4543 z"
       id="path4358"
       style="opacity:0.2;fill:#b6b6b6;stroke:none"
       inkscape:connector-curvature="0" />
    <path
       d="M 3.985362,156.9128 245.31905,459.4543 344.12594,260.09168 z"
       id="path4360"
       style="opacity:0.2;fill:#bcbcbc;stroke:none"
       inkscape:connector-curvature="0" />
    <path
       d="M 3.985362,156.9128 344.12594,260.09168 176.24166,85.212202 z"
       id="path4362"
       style="opacity:0.2;fill:#e0e0e0;stroke:none"
       inkscape:connector-curvature="0" />
    <path
       d="M 176.24166,85.212202 344.12594,260.09168 624.8075,86.086602 z"
       id="path4364"
       style="opacity:0.2;fill:#d1d1d1;stroke:none"
       inkscape:connector-curvature="0" />
    <path
       d="M 344.12594,260.09168 245.31905,459.4543 345.87473,440.21755 z"
       id="path4366"
       style="opacity:0.2;fill:#989898;stroke:none"
       inkscape:connector-curvature="0" />
    <path
       d="m 344.12594,260.09168 1.74879,180.12587 268.44,-83.94216 z"
       id="path4368"
       style="opacity:0.2;fill:#949494;stroke:none"
       inkscape:connector-curvature="0" />
    <path
       d="M 344.12594,260.09168 614.31473,356.27539 624.8075,86.086602 z"
       id="path4370"
       style="opacity:0.2;fill:#a8a8a8;stroke:none"
       inkscape:connector-curvature="0" />
    <path
       d="M 624.8075,86.086602 614.31473,356.27539 951.83211,37.120342 z"
       id="path4372"
       style="opacity:0.2;fill:#a7a7a7;stroke:none"
       inkscape:connector-curvature="0" />
    <path
       d="M 951.83211,37.120342 614.31473,356.27539 1064.6293,355.401 z"
       id="path4374"
       style="opacity:0.2;fill:#7c7c7c;stroke:none"
       inkscape:connector-curvature="0" />
    <path
       d="M 951.83211,37.120342 1064.6293,355.401 1180.9241,37.994742 z"
       id="path4376"
       style="opacity:0.2;fill:#818181;stroke:none"
       inkscape:connector-curvature="0" />
    <path
       d="M 1180.9241,37.994742 1064.6293,355.401 1290.2238,477.81664 z"
       id="path4378"
       style="opacity:0.2;fill:#505050;stroke:none"
       inkscape:connector-curvature="0" />
    <path
       d="M 1180.9241,37.994742 1290.2238,477.81664 1506.1999,184.89351 z"
       id="path4380"
       style="opacity:0.2;fill:#5f5f5f;stroke:none"
       inkscape:connector-curvature="0" />
    <path
       d="m 1506.1999,184.89351 -215.9761,292.92313 232.5896,-5.24639 z"
       id="path4382"
       style="opacity:0.2;fill:#383838;stroke:none"
       inkscape:connector-curvature="0" />
    <path
       d="M -178.76369,508.42054 -208.4932,661.44008 83.555522,692.04399 z"
       id="path4384"
       style="opacity:0.2;fill:#808080;stroke:none"
       inkscape:connector-curvature="0" />
    <path
       d="M -178.76369,508.42054 83.555522,692.04399 245.31905,459.4543 z"
       id="path4386"
       style="opacity:0.2;fill:#7b7b7b;stroke:none"
       inkscape:connector-curvature="0" />
    <path
       d="M 245.31905,459.4543 83.555522,692.04399 324.88919,728.76872 z"
       id="path4388"
       style="opacity:0.2;fill:#6b6b6b;stroke:none"
       inkscape:connector-curvature="0" />
    <path
       d="m 245.31905,459.4543 79.57014,269.31442 20.98554,-288.55117 z"
       id="path4390"
       style="opacity:0.2;fill:#676767;stroke:none"
       inkscape:connector-curvature="0" />
    <path
       d="M 345.87473,440.21755 324.88919,728.76872 614.31473,356.27539 z"
       id="path4392"
       style="opacity:0.2;fill:#636363;stroke:none"
       inkscape:connector-curvature="0" />
    <path
       d="M 614.31473,356.27539 324.88919,728.76872 794.44058,706.90876 z"
       id="path4394"
       style="opacity:0.2;fill:#444444;stroke:none"
       inkscape:connector-curvature="0" />
    <path
       d="M 614.31473,356.27539 794.44058,706.90876 910.73544,613.34822 z"
       id="path4396"
       style="opacity:0.2;fill:#2f2f2f;stroke:none"
       inkscape:connector-curvature="0" />
    <path
       d="M 614.31473,356.27539 910.73544,613.34822 1064.6293,355.401 z"
       id="path4398"
       style="opacity:0.2;fill:#474747;stroke:none"
       inkscape:connector-curvature="0" />
    <path
       d="M 1064.6293,355.401 910.73544,613.34822 1290.2238,477.81664 z"
       id="path4400"
       style="opacity:0.2;fill:#1d1d1d;stroke:none"
       inkscape:connector-curvature="0" />
    <path
       d="M 1290.2238,477.81664 910.73544,613.34822 1314.7069,672.80725 z"
       id="path4402"
       style="opacity:0.2;fill:#000000;stroke:none"
       inkscape:connector-curvature="0" />
    <path
       d="m 1290.2238,477.81664 24.4831,194.99061 208.1065,-200.237 z"
       id="path4404"
       style="opacity:0.2;fill:#050505;stroke:none"
       inkscape:connector-curvature="0" />
    <path
       d="m 1522.8134,472.57025 -208.1065,200.237 108.4253,83.94217 z"
       id="path4406"
       style="opacity:0.2;fill:#000000;stroke:none"
       inkscape:connector-curvature="0" />
    <path
       d="m 1522.8134,472.57025 -99.6812,284.17917 166.1355,152.1451 z"
       id="path4408"
       style="opacity:0.2;fill:#000000;stroke:none"
       inkscape:connector-curvature="0" />
    <path
       d="M -208.4932,661.44008 -115.80708,963.10722 83.555522,692.04399 z"
       id="path4410"
       style="opacity:0.2;fill:#808080;stroke:none"
       inkscape:connector-curvature="0" />
    <path
       d="m 83.555522,692.04399 -199.362602,271.06323 254.44964,17.4879 z"
       id="path4412"
       style="opacity:0.2;fill:#7c7c7c;stroke:none"
       inkscape:connector-curvature="0" />
    <path
       d="M 83.555522,692.04399 138.64256,980.59512 324.88919,728.76872 z"
       id="path4414"
       style="opacity:0.2;fill:#6f6f6f;stroke:none"
       inkscape:connector-curvature="0" />
    <path
       d="M 324.88919,728.76872 138.64256,980.59512 411.45454,849.43552 z"
       id="path4416"
       style="opacity:0.2;fill:#646464;stroke:none"
       inkscape:connector-curvature="0" />
    <path
       d="m 324.88919,728.76872 86.56535,120.6668 382.98604,-142.52676 z"
       id="path4418"
       style="opacity:0.2;fill:#4c4c4c;stroke:none"
       inkscape:connector-curvature="0" />
    <path
       d="m 794.44058,706.90876 -382.98604,142.52676 287.67673,60.3334 z"
       id="path4420"
       style="opacity:0.2;fill:#3e3e3e;stroke:none"
       inkscape:connector-curvature="0" />
    <path
       d="m 794.44058,706.90876 -95.30931,202.86016 250.95204,76.0726 z"
       id="path4422"
       style="opacity:0.2;fill:#2a2a2a;stroke:none"
       inkscape:connector-curvature="0" />
    <path
       d="M 794.44058,706.90876 950.08331,985.84152 910.73544,613.34822 z"
       id="path4424"
       style="opacity:0.2;fill:#212121;stroke:none"
       inkscape:connector-curvature="0" />
    <path
       d="m 910.73544,613.34822 39.34787,372.4933 201.98569,-77.8214 z"
       id="path4426"
       style="opacity:0.2;fill:#111111;stroke:none"
       inkscape:connector-curvature="0" />
    <path
       d="M 910.73544,613.34822 1152.069,908.02012 1314.7069,672.80725 z"
       id="path4428"
       style="opacity:0.2;fill:#010101;stroke:none"
       inkscape:connector-curvature="0" />
    <path
       d="M 1314.7069,672.80725 1152.069,908.02012 1423.1322,756.74942 z"
       id="path4430"
       style="opacity:0.2;fill:#000000;stroke:none"
       inkscape:connector-curvature="0" />
    <path
       d="m 1423.1322,756.74942 -271.0632,151.2707 437.1987,0.8744 z"
       id="path4432"
       style="opacity:0.2;fill:#000000;stroke:none"
       inkscape:connector-curvature="0" />
    <path
       d="m 138.64256,980.59512 811.44075,5.2464 -250.95204,-76.0726 z"
       id="path4434"
       style="opacity:0.2;fill:#434343;stroke:none"
       inkscape:connector-curvature="0" />
    <path
       d="m 138.64256,980.59512 560.48871,-70.8262 -287.67673,-60.3334 z"
       id="path4436"
       style="opacity:0.2;fill:#565656;stroke:none"
       inkscape:connector-curvature="0" />
    <path
       d="m 950.08331,985.84152 639.18439,-76.947 -437.1987,-0.8744 z"
       id="path4438"
       style="opacity:0.2;fill:#000000;stroke:none"
       inkscape:connector-curvature="0" />
  </g>
</svg>
