<?xml version="1.0" encoding="UTF-8" standalone="no"?>
<!-- Generator: Adobe Illustrator 15.1.0, SVG Export Plug-In . SVG Version: 6.00 Build 0)  -->

<svg
   xmlns:dc="http://purl.org/dc/elements/1.1/"
   xmlns:cc="http://creativecommons.org/ns#"
   xmlns:rdf="http://www.w3.org/1999/02/22-rdf-syntax-ns#"
   xmlns:svg="http://www.w3.org/2000/svg"
   xmlns="http://www.w3.org/2000/svg"
   xmlns:sodipodi="http://sodipodi.sourceforge.net/DTD/sodipodi-0.dtd"
   xmlns:inkscape="http://www.inkscape.org/namespaces/inkscape"
   version="1.1"
   id="Calque_1"
   x="0px"
   y="0px"
   width="166.532"
   height="209.41301"
   viewBox="0 0 166.532 209.41301"
   enable-background="new 0 0 563 331"
   xml:space="preserve"
   inkscape:version="0.48.5 r10040"
   sodipodi:docname="onitu.svg"><metadata
     id="metadata3093"><rdf:RDF><cc:Work
         rdf:about=""><dc:format>image/svg+xml</dc:format><dc:type
           rdf:resource="http://purl.org/dc/dcmitype/StillImage" /><dc:title></dc:title></cc:Work></rdf:RDF></metadata><defs
     id="defs3091" /><sodipodi:namedview
     pagecolor="#ffffff"
     bordercolor="#666666"
     borderopacity="1"
     objecttolerance="10"
     gridtolerance="10"
     guidetolerance="10"
     inkscape:pageopacity="0"
     inkscape:pageshadow="2"
     inkscape:window-width="1920"
     inkscape:window-height="1025"
     id="namedview3089"
     showgrid="false"
     fit-margin-top="0"
     fit-margin-left="0"
     fit-margin-right="0"
     fit-margin-bottom="0"
     inkscape:zoom="0.57548845"
     inkscape:cx="240.297"
     inkscape:cy="104.78201"
     inkscape:window-x="-2"
     inkscape:window-y="-3"
     inkscape:window-maximized="1"
     inkscape:current-layer="g3050" /><polygon
     points="104.268,63.051 185.325,85.64 206.293,167.131 146.203,226.035 65.145,203.447 44.178,121.955 "
     id="polygon3048"
     style="fill:#066d91"
     transform="translate(-41.203,-60.869)" /><g
     id="g3050"
     transform="translate(-41.203,-60.869)"><g
       id="g3052"><polygon
         points="145.324,228.52 207.735,168.086 186.915,146.664 "
         id="polygon3054"
         style="fill:#004055" /><path
         d="m 103.495,60.875 c -0.033,0.029 -62.292,60.234 -62.292,60.234 L 79.367,171.291 111.4,69.522 c 0.002,0 -7.828,-8.637 -7.905,-8.647 z"
         id="path3056"
         inkscape:connector-curvature="0"
         style="fill:#046d90" /><polygon
         points="62.666,204.758 41.219,121.125 79.383,171.307 "
         id="polygon3058"
         style="fill:#005571" /><polygon
         points="186.915,146.664 79.383,171.307 145.324,228.52 "
         id="polygon3060"
         style="fill:#046d90" /><polygon
         points="145.324,228.52 62.666,204.758 79.383,171.307 "
         id="polygon3062"
         style="fill:#00445b" /><polygon
         points="186.915,146.664 79.383,171.307 103.506,60.869 "
         id="polygon3064"
         style="fill:#0588b2" /><polygon
         points="207.735,168.086 186.915,146.664 186.9,83.872 "
         id="polygon3066"
         style="fill:#005571" /><path
         d="m 103.507,60.869 c -0.052,0.039 83.408,85.794 83.408,85.794 L 186.89,83.872 c 0,0 -83.31,-22.995 -83.383,-23.003 z"
         id="path3068"
         inkscape:connector-curvature="0"
         style="fill:#06789d" /></g><radialGradient
       id="SVGID_1_"
       cx="681.3479"
       cy="538.87299"
       r="99.807701"
       gradientTransform="translate(-551.0586,-281.0703)"
       gradientUnits="userSpaceOnUse"><stop
         offset="0"
         style="stop-color:#414042"
         id="stop3083" /><stop
         offset="1"
         style="stop-color:#D1D3D4"
         id="stop3085" /></radialGradient><ellipse
       enable-background="new    "
       cx="126.449"
       cy="257.80301"
       rx="70.705002"
       ry="12.479"
       id="ellipse3087"
       sodipodi:cx="126.449"
       sodipodi:cy="257.80301"
       sodipodi:rx="70.705002"
       sodipodi:ry="12.479"
       style="opacity:0.1;fill:url(#SVGID_1_)"
       d="m 197.154,257.80301 c 0,6.89196 -31.65571,12.479 -70.705,12.479 -39.049297,0 -70.705004,-5.58704 -70.705004,-12.479 0,-6.89196 31.655707,-12.479 70.705004,-12.479 39.04929,0 70.705,5.58704 70.705,12.479 z" /></g></svg>