<?xml version="1.0" encoding="UTF-8" standalone="no"?>
<!-- Generator: Adobe Illustrator 15.1.0, SVG Export Plug-In . SVG Version: 6.00 Build 0)  -->

<svg
   xmlns:dc="http://purl.org/dc/elements/1.1/"
   xmlns:cc="http://creativecommons.org/ns#"
   xmlns:rdf="http://www.w3.org/1999/02/22-rdf-syntax-ns#"
   xmlns:svg="http://www.w3.org/2000/svg"
   xmlns="http://www.w3.org/2000/svg"
   xmlns:sodipodi="http://sodipodi.sourceforge.net/DTD/sodipodi-0.dtd"
   xmlns:inkscape="http://www.inkscape.org/namespaces/inkscape"
   version="1.1"
   id="Calque_1"
   x="0px"
   y="0px"
   width="515.76599"
   height="249.41301"
   viewBox="0 0 515.76599 249.41301"
   enable-background="new 0 0 563 331"
   xml:space="preserve"
   inkscape:version="0.48.5 r10040"
   sodipodi:docname="onitu.svg"><metadata
     id="metadata3401"><rdf:RDF><cc:Work
         rdf:about=""><dc:format>image/svg+xml</dc:format><dc:type
           rdf:resource="http://purl.org/dc/dcmitype/StillImage" /></cc:Work></rdf:RDF></metadata><defs
     id="defs3399" /><sodipodi:namedview
     pagecolor="#ffffff"
     bordercolor="#666666"
     borderopacity="1"
     objecttolerance="10"
     gridtolerance="10"
     guidetolerance="10"
     inkscape:pageopacity="0"
     inkscape:pageshadow="2"
     inkscape:window-width="1920"
     inkscape:window-height="1025"
     id="namedview3397"
     showgrid="false"
     inkscape:zoom="1.6277272"
     inkscape:cx="253.49937"
     inkscape:cy="116.89972"
     inkscape:window-x="-2"
     inkscape:window-y="-3"
     inkscape:window-maximized="1"
     inkscape:current-layer="Calque_1"
     fit-margin-top="20"
     fit-margin-bottom="20"
     fit-margin-left="20"
     fit-margin-right="20" /><polygon
     points="104.268,63.051 185.325,85.64 206.293,167.131 146.203,226.035 65.145,203.447 44.178,121.955 "
     id="polygon3356"
     style="fill:#066d91"
     transform="translate(-21.203,-40.869)" /><g
     id="g3358"
     transform="translate(-21.203,-40.869)"><g
       id="g3360"><polygon
         points="145.324,228.52 207.735,168.086 186.915,146.664 "
         id="polygon3362"
         style="fill:#004055" /><path
         d="m 103.495,60.875 c -0.033,0.029 -62.292,60.234 -62.292,60.234 L 79.367,171.291 111.4,69.522 c 0.002,0 -7.828,-8.637 -7.905,-8.647 z"
         id="path3364"
         inkscape:connector-curvature="0"
         style="fill:#046d90" /><polygon
         points="62.666,204.758 41.219,121.125 79.383,171.307 "
         id="polygon3366"
         style="fill:#005571" /><polygon
         points="186.915,146.664 79.383,171.307 145.324,228.52 "
         id="polygon3368"
         style="fill:#046d90" /><polygon
         points="145.324,228.52 62.666,204.758 79.383,171.307 "
         id="polygon3370"
         style="fill:#00445b" /><polygon
         points="186.915,146.664 79.383,171.307 103.506,60.869 "
         id="polygon3372"
         style="fill:#0588b2" /><polygon
         points="207.735,168.086 186.915,146.664 186.9,83.872 "
         id="polygon3374"
         style="fill:#005571" /><path
         d="m 103.507,60.869 c -0.052,0.039 83.408,85.794 83.408,85.794 L 186.89,83.872 c 0,0 -83.31,-22.995 -83.383,-23.003 z"
         id="path3376"
         inkscape:connector-curvature="0"
         style="fill:#06789d" /></g><g
       id="g3378"><path
         d="m 313.262,187.828 c -7.758,7.574 -17.342,11.361 -28.758,11.361 -11.414,0 -21,-3.787 -28.755,-11.361 -7.757,-7.572 -11.637,-17.012 -11.637,-28.316 0,-11.305 3.88,-20.744 11.637,-28.317 7.755,-7.573 17.342,-11.36 28.755,-11.36 11.416,0 21,3.787 28.758,11.36 7.754,7.573 11.633,17.012 11.633,28.317 0,11.304 -3.879,20.744 -11.633,28.316 z m -9.494,-48.018 c -5.23,-5.414 -11.654,-8.122 -19.264,-8.122 -7.61,0 -14.031,2.708 -19.261,8.122 -5.232,5.416 -7.85,11.982 -7.85,19.702 0,7.72 2.615,14.287 7.85,19.701 5.229,5.416 11.649,8.121 19.261,8.121 7.607,0 14.031,-2.705 19.264,-8.121 5.23,-5.414 7.85,-11.98 7.85,-19.701 -0.003,-7.72 -2.62,-14.286 -7.85,-19.702 z"
         id="path3380"
         inkscape:connector-curvature="0" /><path
         d="m 345.75,166.811 v 31.609 h -12.293 v -58.39 h 12.293 v 10.646 c 1.977,-3.584 4.701,-6.402 8.178,-8.452 3.475,-2.047 7.225,-3.073 11.25,-3.073 6.584,0 11.908,2.013 15.969,6.037 4.063,4.025 6.092,9.842 6.092,17.451 v 35.78 H 374.946 V 166.37 c 0,-10.756 -4.465,-16.134 -13.391,-16.134 -4.244,0 -7.938,1.41 -11.086,4.226 -3.147,2.818 -4.719,6.934 -4.719,12.349 z"
         id="path3382"
         inkscape:connector-curvature="0" /><path
         d="m 399.639,128.396 c -1.535,-1.537 -2.305,-3.365 -2.305,-5.488 0,-2.122 0.77,-3.951 2.305,-5.488 1.537,-1.537 3.365,-2.305 5.488,-2.305 2.119,0 3.949,0.769 5.486,2.305 1.537,1.536 2.307,3.366 2.307,5.488 0,2.123 -0.77,3.951 -2.307,5.488 -1.537,1.537 -3.367,2.305 -5.486,2.305 -2.123,-0.001 -3.951,-0.769 -5.488,-2.305 z m 11.523,70.024 h -12.293 v -58.39 h 12.293 v 58.39 z"
         id="path3384"
         inkscape:connector-curvature="0" /><path
         d="m 438.604,149.908 v 29.634 c 0,2.782 0.73,4.994 2.193,6.64 1.463,1.646 3.514,2.471 6.146,2.471 2.635,0 5.16,-1.277 7.574,-3.842 l 5.049,8.67 c -4.318,3.881 -9.094,5.818 -14.324,5.818 -5.23,0 -9.693,-1.811 -13.389,-5.434 -3.697,-3.621 -5.543,-8.506 -5.543,-14.652 v -29.305 h -7.354 v -9.878 h 7.354 V 121.7 h 12.293 v 18.33 h 15.365 v 9.878 h -15.364 z"
         id="path3386"
         inkscape:connector-curvature="0" /><path
         d="M 504.676,171.641 V 140.03 h 12.293 v 58.39 h -12.293 v -10.646 c -1.979,3.586 -4.703,6.404 -8.18,8.451 -3.477,2.051 -7.227,3.074 -11.25,3.074 -6.586,0 -11.906,-2.012 -15.969,-6.037 -4.061,-4.021 -6.092,-9.84 -6.092,-17.451 V 140.03 h 12.293 v 32.048 c 0,10.757 4.463,16.135 13.391,16.135 4.242,0 7.938,-1.408 11.084,-4.227 3.149,-2.814 4.723,-6.929 4.723,-12.345 z"
         id="path3388"
         inkscape:connector-curvature="0" /></g><radialGradient
       id="SVGID_1_"
       cx="681.3479"
       cy="538.87299"
       r="99.807701"
       gradientTransform="translate(-551.0586,-281.0703)"
       gradientUnits="userSpaceOnUse"><stop
         offset="0"
         style="stop-color:#414042"
         id="stop3391" /><stop
         offset="1"
         style="stop-color:#D1D3D4"
         id="stop3393" /></radialGradient><ellipse
       enable-background="new    "
       cx="126.449"
       cy="257.80301"
       rx="70.705002"
       ry="12.479"
       id="ellipse3395"
       sodipodi:cx="126.449"
       sodipodi:cy="257.80301"
       sodipodi:rx="70.705002"
       sodipodi:ry="12.479"
       style="opacity:0.1;fill:url(#SVGID_1_)"
       d="m 197.154,257.80301 c 0,6.89196 -31.65571,12.479 -70.705,12.479 -39.049297,0 -70.705004,-5.58704 -70.705004,-12.479 0,-6.89196 31.655707,-12.479 70.705004,-12.479 39.04929,0 70.705,5.58704 70.705,12.479 z" /></g><text
     xml:space="preserve"
     style="font-size:23.50111771px;font-style:normal;font-weight:normal;line-height:125%;letter-spacing:0px;word-spacing:0px;fill:#000000;fill-opacity:1;stroke:none;font-family:Sans"
     x="242.60321"
     y="202.9953"
     id="text3411"
     sodipodi:linespacing="125%"><tspan
       sodipodi:role="line"
       x="242.60321"
       y="202.9953"
       id="tspan3413"><tspan
         x="242.60321"
         y="202.9953"
         id="tspan3415">Sync &amp; share your files</tspan></tspan></text>
</svg>